<svg width="242" height="47" viewBox="0 0 242 47" fill="none" xmlns="http://www.w3.org/2000/svg">
<g clip-path="url(#clip0_1_5)">
<path d="M10.0795 15.2727V8.90909H35.3636V15.2727H26.6136V38H18.8295V15.2727H10.0795ZM45.7401 38.3977C43.4105 38.3977 41.4029 37.9527 39.7173 37.0625C38.0412 36.1629 36.7486 34.875 35.8395 33.1989C34.9399 31.5133 34.4901 29.4962 34.4901 27.1477C34.4901 24.8939 34.9446 22.9242 35.8537 21.2386C36.7628 19.553 38.0459 18.2415 39.7031 17.304C41.3603 16.3665 43.3158 15.8977 45.5696 15.8977C47.2173 15.8977 48.7088 16.1534 50.044 16.6648C51.3793 17.1761 52.5204 17.9195 53.4673 18.8949C54.4143 19.8608 55.1435 21.035 55.6548 22.4176C56.1662 23.8002 56.4219 25.358 56.4219 27.0909V28.9091H36.9332V24.5909H49.206C49.1965 23.9659 49.0355 23.4167 48.723 22.9432C48.42 22.4602 48.008 22.0862 47.4872 21.821C46.9759 21.5464 46.3935 21.4091 45.7401 21.4091C45.1056 21.4091 44.5232 21.5464 43.9929 21.821C43.4626 22.0862 43.0365 22.4555 42.7145 22.929C42.402 23.4025 42.2363 23.9564 42.2173 24.5909V29.25C42.2173 29.9508 42.3641 30.5758 42.6577 31.125C42.9512 31.6742 43.3726 32.1051 43.9219 32.4176C44.4711 32.7301 45.134 32.8864 45.9105 32.8864C46.4503 32.8864 46.9427 32.8106 47.3878 32.6591C47.8423 32.5076 48.2306 32.2898 48.5526 32.0057C48.8745 31.7121 49.1113 31.3617 49.2628 30.9545H56.4219C56.1757 32.4697 55.5933 33.786 54.6747 34.9034C53.7562 36.0114 52.5393 36.8731 51.0241 37.4886C49.5185 38.0947 47.7571 38.3977 45.7401 38.3977ZM67.4624 25.7273V38H59.6214V16.1818H67.0646V20.3295H67.2919C67.7654 18.947 68.5987 17.8627 69.7919 17.0767C70.9946 16.2907 72.3961 15.8977 73.9964 15.8977C75.54 15.8977 76.88 16.2528 78.0163 16.9631C79.1622 17.6638 80.0476 18.6297 80.6726 19.8608C81.3071 21.0919 81.6196 22.4981 81.6101 24.0795V38H73.7692V25.7273C73.7786 24.6477 73.504 23.8002 72.9453 23.1847C72.3961 22.5691 71.629 22.2614 70.6442 22.2614C70.0002 22.2614 69.4368 22.4034 68.9538 22.6875C68.4804 22.9621 68.1158 23.3598 67.8601 23.8807C67.6044 24.392 67.4718 25.0076 67.4624 25.7273ZM95.9922 46.6364C93.8047 46.6364 91.9297 46.3239 90.3672 45.6989C88.8142 45.0833 87.6068 44.2311 86.745 43.142C85.8928 42.0625 85.4145 40.822 85.3104 39.4205H92.8672C92.9429 39.8845 93.1323 40.2585 93.4354 40.5426C93.7384 40.8267 94.1267 41.0303 94.6001 41.1534C95.0831 41.286 95.6229 41.3523 96.2195 41.3523C97.2327 41.3523 98.0708 41.1061 98.7337 40.6136C99.406 40.1212 99.7422 39.2311 99.7422 37.9432V34.25H99.5149C99.2308 34.9886 98.7952 35.6184 98.2081 36.1392C97.621 36.6506 96.9155 37.0436 96.0916 37.3182C95.2678 37.5833 94.3634 37.7159 93.3786 37.7159C91.8255 37.7159 90.3956 37.3561 89.0888 36.6364C87.7914 35.9167 86.7498 34.7756 85.9638 33.2131C85.1873 31.6506 84.799 29.6098 84.799 27.0909C84.799 24.4583 85.2062 22.3182 86.0206 20.6705C86.8445 19.0227 87.9051 17.8153 89.2024 17.0483C90.5092 16.2812 91.8823 15.8977 93.3217 15.8977C94.4013 15.8977 95.3482 16.0871 96.1626 16.4659C96.977 16.8352 97.6589 17.3324 98.2081 17.9574C98.7573 18.5729 99.174 19.25 99.4581 19.9886H99.6286V16.1818H107.469V37.9432C107.469 39.7898 106.991 41.357 106.035 42.6449C105.088 43.9422 103.753 44.9318 102.029 45.6136C100.306 46.2955 98.2933 46.6364 95.9922 46.6364ZM96.2763 32.1477C96.996 32.1477 97.6115 31.9489 98.1229 31.5511C98.6437 31.1439 99.0414 30.5663 99.3161 29.8182C99.6001 29.0606 99.7422 28.1515 99.7422 27.0909C99.7422 26.0114 99.6001 25.0881 99.3161 24.321C99.0414 23.5445 98.6437 22.9527 98.1229 22.5455C97.6115 22.1288 96.996 21.9205 96.2763 21.9205C95.5566 21.9205 94.9411 22.1288 94.4297 22.5455C93.9278 22.9527 93.5395 23.5445 93.2649 24.321C92.9998 25.0881 92.8672 26.0114 92.8672 27.0909C92.8672 28.1705 92.9998 29.089 93.2649 29.8466C93.5395 30.5947 93.9278 31.1676 94.4297 31.5653C94.9411 31.9536 95.5566 32.1477 96.2763 32.1477ZM111.457 38V16.1818H119.071V20.3295H119.298C119.696 18.7955 120.326 17.6733 121.188 16.9631C122.059 16.2528 123.077 15.8977 124.241 15.8977C124.582 15.8977 124.919 15.9261 125.25 15.983C125.591 16.0303 125.918 16.1013 126.23 16.196V22.8864C125.842 22.7538 125.364 22.6544 124.795 22.5881C124.227 22.5218 123.74 22.4886 123.332 22.4886C122.565 22.4886 121.874 22.6638 121.259 23.0142C120.652 23.3551 120.174 23.8381 119.824 24.4631C119.473 25.0786 119.298 25.803 119.298 26.6364V38H111.457ZM128.801 38V16.1818H136.642V38H128.801ZM132.722 13.9091C131.661 13.9091 130.752 13.5587 129.994 12.858C129.237 12.1572 128.858 11.3144 128.858 10.3295C128.858 9.3447 129.237 8.50189 129.994 7.80114C130.752 7.10038 131.661 6.75 132.722 6.75C133.792 6.75 134.701 7.10038 135.449 7.80114C136.206 8.50189 136.585 9.3447 136.585 10.3295C136.585 11.3144 136.206 12.1572 135.449 12.858C134.701 13.5587 133.792 13.9091 132.722 13.9091Z" fill="#00C34E"/>
<path d="M147.057 38L151.886 8.90909H164.443C166.602 8.90909 168.42 9.33523 169.898 10.1875C171.375 11.0398 172.436 12.2377 173.08 13.7812C173.723 15.3248 173.875 17.1288 173.534 19.1932C173.193 21.2955 172.436 23.1089 171.261 24.6335C170.097 26.1487 168.61 27.3182 166.801 28.142C165.002 28.9564 162.985 29.3636 160.75 29.3636H153.25L154.273 23.2273H160.182C161.129 23.2273 161.962 23.0663 162.682 22.7443C163.402 22.4129 163.984 21.9489 164.429 21.3523C164.874 20.7462 165.163 20.0265 165.295 19.1932C165.428 18.3598 165.366 17.6496 165.111 17.0625C164.865 16.4659 164.438 16.0114 163.832 15.6989C163.236 15.3769 162.473 15.2159 161.545 15.2159H158.761L154.955 38H147.057ZM173.307 38L178.136 8.90909H190.693C192.852 8.90909 194.675 9.30208 196.162 10.0881C197.649 10.8741 198.719 12.0057 199.372 13.483C200.026 14.9602 200.182 16.7311 199.841 18.7955C199.5 20.8788 198.747 22.6354 197.582 24.0653C196.427 25.4858 194.955 26.5653 193.165 27.304C191.384 28.0331 189.386 28.3977 187.17 28.3977H179.67L180.693 22.2614H186.602C187.53 22.2614 188.345 22.1477 189.045 21.9205C189.746 21.6837 190.314 21.3144 190.75 20.8125C191.186 20.3011 191.47 19.6288 191.602 18.7955C191.735 17.9621 191.669 17.285 191.403 16.7642C191.138 16.2339 190.698 15.8456 190.082 15.5994C189.467 15.3437 188.705 15.2159 187.795 15.2159H185.011L181.205 38H173.307ZM192.568 24.6477L197.625 38H189.045L184.159 24.6477H192.568ZM230.928 23.9659C230.397 27.1288 229.346 29.7803 227.774 31.9205C226.202 34.0606 224.294 35.6752 222.05 36.7642C219.805 37.8532 217.405 38.3977 214.848 38.3977C212.121 38.3977 209.753 37.8059 207.746 36.6222C205.738 35.4384 204.275 33.7055 203.357 31.4233C202.438 29.1411 202.253 26.3523 202.803 23.0568C203.314 19.8939 204.356 17.233 205.928 15.0739C207.5 12.9148 209.417 11.2812 211.68 10.1733C213.944 9.06534 216.363 8.51136 218.939 8.51136C221.647 8.51136 224 9.10795 225.999 10.3011C228.006 11.4943 229.464 13.2415 230.374 15.5426C231.292 17.8437 231.477 20.6515 230.928 23.9659ZM222.973 23.0568C223.238 21.3902 223.257 19.9886 223.03 18.8523C222.803 17.7064 222.324 16.8447 221.595 16.267C220.866 15.6799 219.886 15.3864 218.655 15.3864C217.253 15.3864 216.013 15.7273 214.933 16.4091C213.854 17.0909 212.959 18.071 212.249 19.3494C211.538 20.6278 211.041 22.1667 210.757 23.9659C210.454 25.6515 210.426 27.053 210.672 28.1705C210.928 29.2879 211.429 30.1259 212.178 30.6847C212.935 31.2434 213.92 31.5227 215.132 31.5227C216.515 31.5227 217.736 31.1913 218.797 30.5284C219.867 29.8655 220.752 28.9044 221.453 27.6449C222.163 26.3854 222.67 24.8561 222.973 23.0568Z" fill="#F4F4F4"/>
</g>
<defs>
<clipPath id="clip0_1_5">
<rect width="242" height="47" fill="white"/>
</clipPath>
</defs>
</svg>
